<svg width="180" height="65" viewBox="0 0 180 65" fill="none" xmlns="http://www.w3.org/2000/svg">
<path d="M73.12 52.336C71.52 52.336 70.096 51.976 68.848 51.256C67.6 50.528 66.62 49.512 65.908 48.208C65.196 46.896 64.84 45.36 64.84 43.6C64.84 41.84 65.196 40.308 65.908 39.004C66.62 37.692 67.6 36.676 68.848 35.956C70.096 35.228 71.52 34.864 73.12 34.864C74.72 34.864 76.144 35.228 77.392 35.956C78.64 36.676 79.62 37.692 80.332 39.004C81.044 40.308 81.4 41.84 81.4 43.6C81.4 45.36 81.044 46.896 80.332 48.208C79.62 49.512 78.64 50.528 77.392 51.256C76.144 51.976 74.72 52.336 73.12 52.336ZM73.12 49.36C74.24 49.36 75.176 49.112 75.928 48.616C76.68 48.12 77.244 47.44 77.62 46.576C77.996 45.704 78.184 44.712 78.184 43.6C78.184 42.488 77.996 41.5 77.62 40.636C77.244 39.764 76.68 39.08 75.928 38.584C75.176 38.088 74.24 37.84 73.12 37.84C72 37.84 71.064 38.088 70.312 38.584C69.56 39.08 68.996 39.764 68.62 40.636C68.244 41.5 68.056 42.488 68.056 43.6C68.056 44.712 68.244 45.704 68.62 46.576C68.996 47.44 69.56 48.12 70.312 48.616C71.064 49.112 72 49.36 73.12 49.36ZM83.4623 52V40H86.0063L86.1983 41.752L85.7663 41.224C86.2223 40.864 86.7663 40.54 87.3983 40.252C88.0383 39.956 88.7823 39.808 89.6303 39.808C90.2703 39.808 90.8343 39.904 91.3223 40.096C91.8183 40.28 92.2423 40.548 92.5943 40.9C92.9463 41.244 93.2303 41.656 93.4463 42.136L92.7263 41.968C93.1103 41.28 93.6703 40.748 94.4063 40.372C95.1503 39.996 95.9903 39.808 96.9263 39.808C98.0303 39.808 98.9303 40.036 99.6263 40.492C100.322 40.948 100.834 41.592 101.162 42.424C101.49 43.248 101.654 44.216 101.654 45.328V52H98.6783V45.544C98.6783 44.424 98.5023 43.596 98.1503 43.06C97.8063 42.524 97.2303 42.256 96.4223 42.256C96.0223 42.256 95.6703 42.328 95.3663 42.472C95.0703 42.608 94.8223 42.812 94.6223 43.084C94.4303 43.348 94.2863 43.672 94.1903 44.056C94.0943 44.432 94.0463 44.856 94.0463 45.328V52H91.0703V45.544C91.0703 44.8 90.9903 44.184 90.8303 43.696C90.6783 43.208 90.4303 42.848 90.0863 42.616C89.7503 42.376 89.3103 42.256 88.7663 42.256C88.0703 42.256 87.4983 42.42 87.0503 42.748C86.6103 43.068 86.2223 43.504 85.8863 44.056L86.4383 42.448V52H83.4623ZM104.322 52V40H107.106L107.226 42.232L106.53 41.32C106.986 40.936 107.53 40.588 108.162 40.276C108.794 39.964 109.53 39.808 110.37 39.808C111.906 39.808 113.046 40.32 113.79 41.344C114.534 42.36 114.906 43.68 114.906 45.304V52H111.93V45.544C111.93 44.424 111.742 43.596 111.366 43.06C110.998 42.524 110.394 42.256 109.554 42.256C108.874 42.256 108.318 42.424 107.886 42.76C107.454 43.088 107.074 43.528 106.746 44.08L107.298 42.616V52H104.322ZM117.564 52V40H120.54V52H117.564ZM117.564 38.176V35.2H120.54V38.176H117.564ZM123.457 52V35.2H129.793C131.417 35.2 132.621 35.548 133.405 36.244C134.197 36.932 134.593 37.936 134.593 39.256C134.593 40.24 134.369 41.064 133.921 41.728C133.481 42.384 132.817 42.864 131.929 43.168V42.592C133.273 42.88 134.277 43.408 134.941 44.176C135.605 44.944 135.937 45.96 135.937 47.224C135.937 48.736 135.449 49.912 134.473 50.752C133.497 51.584 132.161 52 130.465 52H123.457ZM126.529 49.264H130.009C130.849 49.264 131.517 49.092 132.013 48.748C132.517 48.404 132.769 47.784 132.769 46.888C132.769 45.976 132.505 45.356 131.977 45.028C131.449 44.7 130.793 44.536 130.009 44.536H126.529V49.264ZM126.529 41.8H129.337C130.081 41.8 130.637 41.648 131.005 41.344C131.381 41.04 131.569 40.552 131.569 39.88C131.569 39.184 131.381 38.688 131.005 38.392C130.637 38.088 130.081 37.936 129.337 37.936H126.529V41.8ZM143.473 52.24C142.169 52.24 141.057 51.956 140.137 51.388C139.217 50.82 138.513 50.064 138.025 49.12C137.545 48.176 137.305 47.144 137.305 46.024C137.305 44.896 137.545 43.856 138.025 42.904C138.513 41.952 139.217 41.192 140.137 40.624C141.057 40.048 142.169 39.76 143.473 39.76C144.777 39.76 145.889 40.048 146.809 40.624C147.729 41.192 148.429 41.952 148.909 42.904C149.397 43.856 149.641 44.896 149.641 46.024C149.641 47.144 149.397 48.176 148.909 49.12C148.429 50.064 147.729 50.82 146.809 51.388C145.889 51.956 144.777 52.24 143.473 52.24ZM143.473 49.792C144.473 49.792 145.241 49.444 145.777 48.748C146.321 48.044 146.593 47.136 146.593 46.024C146.593 44.896 146.321 43.98 145.777 43.276C145.241 42.564 144.473 42.208 143.473 42.208C142.481 42.208 141.713 42.564 141.169 43.276C140.625 43.98 140.353 44.896 140.353 46.024C140.353 47.136 140.625 48.044 141.169 48.748C141.713 49.444 142.481 49.792 143.473 49.792ZM157.16 52.24C155.856 52.24 154.744 51.956 153.824 51.388C152.904 50.82 152.2 50.064 151.712 49.12C151.232 48.176 150.992 47.144 150.992 46.024C150.992 44.896 151.232 43.856 151.712 42.904C152.2 41.952 152.904 41.192 153.824 40.624C154.744 40.048 155.856 39.76 157.16 39.76C158.464 39.76 159.576 40.048 160.496 40.624C161.416 41.192 162.116 41.952 162.596 42.904C163.084 43.856 163.328 44.896 163.328 46.024C163.328 47.144 163.084 48.176 162.596 49.12C162.116 50.064 161.416 50.82 160.496 51.388C159.576 51.956 158.464 52.24 157.16 52.24ZM157.16 49.792C158.16 49.792 158.928 49.444 159.464 48.748C160.008 48.044 160.28 47.136 160.28 46.024C160.28 44.896 160.008 43.98 159.464 43.276C158.928 42.564 158.16 42.208 157.16 42.208C156.168 42.208 155.4 42.564 154.856 43.276C154.312 43.98 154.04 44.896 154.04 46.024C154.04 47.136 154.312 48.044 154.856 48.748C155.4 49.444 156.168 49.792 157.16 49.792ZM165.376 52V34H168.352V44.92L172.072 40H175.432L171.064 45.76L175.528 52H172.168L168.352 46.672V52H165.376Z" fill="white"/>
<g clip-path="url(#clip0_3602_4328)">
<path d="M1.97638 27.4028C5.93282 28.2366 9.67869 29.3273 13.3899 29.7591C15.2311 30.0321 17.0513 30.1879 18.853 30.1795C19.7571 30.1684 20.6545 30.1638 21.5495 30.1188C22.4445 30.0711 23.3341 29.989 24.2166 29.8971C27.7492 29.4912 31.1536 28.6894 34.285 27.3988C35.8571 26.7516 37.3922 26.0207 38.8566 25.1403C40.3385 24.293 41.7672 23.3266 43.1432 22.2566C44.5412 21.2144 45.877 20.053 47.1877 18.8266C47.8511 18.2216 48.5012 17.589 49.1468 16.9445L51.1241 14.9138C53.8398 12.0981 57.0715 8.96811 61.0586 6.80752C62.0509 6.26895 63.0766 5.79068 64.1281 5.3888C65.1741 4.96837 66.2317 4.63375 67.3465 4.38258C69.5513 3.88067 71.7536 3.64721 73.9351 3.72924C76.1143 3.87236 78.2743 4.21195 80.3052 4.99909C81.3126 5.42575 82.2997 5.87597 83.1817 6.53873C84.0413 7.20938 84.8461 7.99045 85.2937 8.96071L84.874 9.28882C83.6599 7.87388 81.7707 7.17035 79.9165 6.79172C78.0321 6.43633 76.0864 6.3916 74.1691 6.57093C70.32 6.90273 66.5986 8.24546 63.3696 10.3459C61.7599 11.404 60.2663 12.6351 58.8739 13.9772C57.4821 15.3222 56.1795 16.7644 54.883 18.2271C52.3118 21.1783 49.5265 24.0206 46.3826 26.4365C43.2308 28.8379 39.7189 30.8062 35.9612 32.1185C32.2047 33.4378 28.2322 34.0822 24.271 34.1349C20.3098 34.1984 16.3351 33.6504 12.5557 32.506C8.77156 31.3574 5.21989 29.6398 1.73877 27.8772L1.97638 27.4028Z" fill="white"/>
<path d="M4.44273 36.9614C8.39917 37.7951 12.145 38.8859 15.8562 39.3176C17.6974 39.5907 19.5175 39.746 21.3193 39.738C22.2234 39.7265 23.1209 39.7223 24.0158 39.6774C24.9109 39.6297 25.8004 39.5475 26.683 39.4557C30.2155 39.0497 33.6199 38.2479 36.7514 36.9574C38.3234 36.3101 39.8585 35.5792 41.3229 34.6988C42.8048 33.8515 44.2336 32.8852 45.6096 31.8151C47.0076 30.7729 48.3433 29.6116 49.6541 28.3852C50.3175 27.7802 50.9675 27.1475 51.6131 26.503L53.5904 24.4723C56.3062 21.6566 59.5379 18.5266 63.5251 16.3664C64.5173 15.8278 65.543 15.3496 66.5946 14.9477C67.6405 14.5273 68.6982 14.1926 69.8129 13.9411C72.018 13.4391 74.22 13.2057 76.4015 13.2878C78.5806 13.4309 80.7406 13.7705 82.7715 14.5576C83.779 14.9846 84.766 15.4345 85.6481 16.0973C86.5077 16.7679 87.3125 17.549 87.76 18.5192L87.3403 18.8473C86.1263 17.4324 84.237 16.7289 82.3828 16.3502C80.4984 15.9949 78.5527 15.9501 76.6355 16.1295C72.7863 16.4613 69.065 17.804 65.8359 19.9044C64.2262 20.9625 62.7326 22.1937 61.3403 23.5357C59.9484 24.8807 58.6458 26.323 57.3493 27.7856C54.7782 30.7368 51.9929 33.5792 48.849 35.995C45.6971 38.3964 42.1852 40.3647 38.4275 41.677C34.671 42.9963 30.6986 43.6408 26.7374 43.6934C22.7761 43.757 18.8014 43.209 15.0216 42.0646C11.2366 40.9155 7.68494 39.1979 4.20383 37.4353L4.44273 36.9614Z" fill="white"/>
<path d="M6.90871 46.5203C10.8651 47.354 14.611 48.4448 18.3222 48.8766C20.1634 49.1496 21.9836 49.3053 23.7853 49.297C24.6894 49.2858 25.5868 49.2813 26.4818 49.2363C27.3768 49.1886 28.2664 49.1064 29.1489 49.0146C32.6815 48.6087 36.0859 47.8068 39.2174 46.5163C40.7894 45.8691 42.3245 45.1381 43.7889 44.2578C45.2708 43.4105 46.6995 42.4441 48.0756 41.374C49.4735 40.3319 50.8093 39.1705 52.1201 37.9441C52.7834 37.3391 53.4335 36.7065 54.0791 36.062L56.0564 34.0313C58.7722 31.2155 62.0038 28.0856 65.9911 25.9253C66.9833 25.3868 68.009 24.9085 69.0606 24.5066C70.1066 24.0866 71.1642 23.7519 72.2793 23.5003C74.4841 22.9984 76.6864 22.7649 78.8679 22.847C81.0471 22.9901 83.2067 23.3298 85.238 24.1168C86.2454 24.5435 87.2325 24.9937 88.1145 25.6565C88.9741 26.3271 89.779 27.1085 90.2264 28.0784L89.8068 28.4065C88.5927 26.9916 86.7035 26.2881 84.8493 25.9094C82.9649 25.5541 81.0191 25.5093 79.1019 25.6887C75.2531 26.0204 71.5314 27.3632 68.3027 29.4635C66.693 30.5216 65.1994 31.7528 63.8071 33.0948C62.4152 34.4398 61.1126 35.8821 59.8161 37.3447C57.245 40.2959 54.4597 43.1383 51.3158 45.5541C48.1639 47.9555 44.652 49.9238 40.8943 51.2361C37.1378 52.5554 33.1654 53.1999 29.2042 53.2525C25.2429 53.316 21.2686 52.7679 17.4888 51.6236C13.7038 50.4745 10.1517 48.757 6.67063 46.9944L6.90871 46.5203Z" fill="#F98600"/>
</g>
<defs>
<clipPath id="clip0_3602_4328">
<rect width="86" height="38" fill="white" transform="translate(0 23.3652) rotate(-15.7647)"/>
</clipPath>
</defs>
</svg>
