<svg width="39" height="40" viewBox="0 0 39 40" fill="none" xmlns="http://www.w3.org/2000/svg">
<path d="M28.2048 40H11.7691C10.7999 40 10.0114 39.2114 10.0114 38.2423V37.4544C5.90706 35.562 1.55062 29.9476 1.55062 26.4438C1.55062 25.4747 2.33916 24.6861 3.30832 24.6861H5.96768C6.29133 24.6861 6.55358 24.9484 6.55358 25.272C6.55358 25.5957 6.29133 25.8579 5.96768 25.8579H3.30832C2.98522 25.8579 2.72242 26.1207 2.72242 26.4438C2.72242 27.844 3.70501 29.9666 5.28671 31.983C6.90785 34.0498 8.9285 35.7241 10.7144 36.4846H22.8051C23.1288 36.4846 23.391 36.7468 23.391 37.0705C23.391 37.3941 23.1288 37.6564 22.8051 37.6564H11.1832V38.2423C11.1832 38.5654 11.446 38.8282 11.7691 38.8282H28.2048C28.5279 38.8282 28.7907 38.5654 28.7907 38.2423V37.6564H25.1489C24.8252 37.6564 24.563 37.3941 24.563 37.0705C24.563 36.7468 24.8252 36.4846 25.1489 36.4846H29.2595C31.0454 35.7241 33.0661 34.0498 34.6872 31.983C36.2689 29.9665 37.2514 27.844 37.2514 26.4438C37.2514 26.1207 36.9887 25.8579 36.6655 25.8579H29.9815L28.5003 27.3392C28.3904 27.4491 28.2414 27.5108 28.0859 27.5108C27.9305 27.5108 27.7816 27.4491 27.6716 27.3392L25.0033 24.6709C24.7745 24.442 24.7745 24.071 25.0033 23.8423C25.2322 23.6135 25.6031 23.6135 25.8319 23.8423L28.0859 26.0963L29.83 24.3522C29.9407 24.2416 30.0016 24.0945 30.0016 23.938C30.0016 23.7814 29.9407 23.6343 29.83 23.5237L26.7474 20.441L20.4461 26.7423L23.5287 29.8249C23.7572 30.0535 24.1289 30.0534 24.3573 29.8249L24.7716 29.4106L22.5175 27.1566C22.2887 26.9277 22.2887 26.5568 22.5175 26.328C22.7464 26.0992 23.1174 26.0992 23.346 26.328L25.6001 28.582L26.031 28.1511C26.26 27.9222 26.6309 27.9224 26.8596 28.1511C27.0884 28.3799 27.0884 28.7509 26.8596 28.9797L25.1858 30.6535C24.8538 30.9855 24.4124 31.1683 23.9429 31.1683C23.4733 31.1683 23.032 30.9855 22.7 30.6535L19.547 27.5004C18.9863 27.7693 18.3087 27.7264 17.7748 27.3494L15.6628 25.8578C15.6593 25.8578 15.6559 25.8578 15.6524 25.8578H15.2843C14.3152 25.8578 13.5266 26.6464 13.5266 27.6155V30.8539C13.5266 31.3321 13.3281 31.7957 12.9821 32.1258C12.631 32.4606 12.1713 32.6328 11.6847 32.6095C10.7463 32.5654 10.0112 31.7796 10.0112 30.8208V25.8578H8.31112C7.98747 25.8578 7.72522 25.5956 7.72522 25.2719C7.72522 24.9483 7.98747 24.686 8.31112 24.686H14.0036L13.4968 24.328C12.9219 23.9221 12.6451 23.215 12.7915 22.5266L13.5454 18.9823C13.87 17.4559 13.405 15.8857 12.3015 14.7823L0.514749 2.99557C0.176646 2.65738 -0.0108422 2.18921 0.000485149 1.71104C0.0118907 1.22607 0.216253 0.778755 0.575761 0.451667C1.27056 -0.180714 2.3458 -0.144935 3.02396 0.533146L14.7875 12.2967C15.8909 13.4002 17.4613 13.8653 18.9875 13.5405C19.3039 13.4731 19.6152 13.6752 19.6825 13.9917C19.7498 14.3082 19.5478 14.6193 19.2314 14.6866C17.3154 15.0944 15.3441 14.5104 13.9589 13.1253L2.19534 1.36176C1.9645 1.13076 1.59171 1.11131 1.36446 1.31825C1.24416 1.4277 1.1758 1.57706 1.17197 1.73862C1.16814 1.9004 1.229 2.05258 1.34337 2.16695L13.1303 13.9538C14.5155 15.339 15.0993 17.31 14.6917 19.2262L13.9379 22.7705C13.889 23 13.9814 23.2356 14.1729 23.371L18.451 26.3923C18.6848 26.5573 19.0011 26.5304 19.2034 26.328L26.3332 19.1981C26.5355 18.9959 26.5625 18.6795 26.3975 18.4458L23.3762 14.1678C23.2409 13.9763 23.0053 13.8838 22.7757 13.9328L21.6731 14.1672C21.3568 14.2343 21.0455 14.0325 20.9781 13.716C20.9109 13.3995 21.1129 13.0884 21.4293 13.021L22.5318 12.7866C23.22 12.6399 23.9271 12.917 24.3332 13.4918L27.3546 17.7698C27.7315 18.3036 27.7744 18.9812 27.5056 19.542L30.6587 22.695C31.1962 23.2326 31.3121 24.0344 31.0064 24.686H36.6655C37.6347 24.686 38.4232 25.4746 38.4232 26.4437C38.4232 29.9475 34.0668 35.5619 29.9625 37.4544V38.2422C29.9625 39.2115 29.174 40 28.2048 40ZM11.1832 25.8579V30.8209C11.1832 31.1473 11.433 31.4247 11.74 31.4391C11.9021 31.4472 12.0563 31.3896 12.1735 31.278C12.2906 31.1663 12.355 31.0157 12.355 30.8539V27.6155C12.355 26.9566 12.5737 26.3477 12.9423 25.8578H11.1832V25.8579Z" fill="#156778"/>
</svg>
