<svg width="40" height="40" viewBox="0 0 40 40" fill="none" xmlns="http://www.w3.org/2000/svg">
<path d="M20.0004 40C18.8336 40 17.6677 39.6644 16.6542 38.994C13.754 37.0755 11.6773 34.9906 10.3052 32.6201C8.96791 30.3096 8.25758 27.6712 8.14328 24.5781C4.73601 20.1193 4.7003 13.9043 8.0782 9.39555C9.02268 8.13497 10.174 7.0776 11.5005 6.25281L14.8319 4.18128C15.341 1.79528 17.4653 0 20.001 0C21.3352 0 22.6094 0.498841 23.5891 1.40465L28.8232 6.24438C29.0609 6.46407 29.0754 6.83478 28.8557 7.07245C28.6359 7.31003 28.2652 7.32456 28.0276 7.10487L22.7935 2.26514C22.031 1.56012 21.0393 1.1719 20.001 1.1719C17.733 1.1719 15.8879 3.01703 15.8879 5.28506C15.8879 6.0425 16.0953 6.78252 16.4877 7.42511C16.6563 7.70129 16.5691 8.06192 16.2929 8.2306C16.0167 8.3992 15.6561 8.31201 15.4875 8.03583C15.042 7.30628 14.782 6.4797 14.727 5.62663L12.1194 7.24807C10.9171 7.99567 9.87301 8.9546 9.01619 10.0983C9.01463 10.1003 9.01315 10.1023 9.01166 10.1043C9.01072 10.1056 9.00955 10.1071 9.00861 10.1084C9.00807 10.1092 9.00768 10.1096 9.00713 10.1103C6.3073 13.7239 6.02229 18.5512 8.12984 22.4124C8.17516 20.2566 8.77814 17.7576 12.2849 15.3116C13.3173 14.5915 16.6145 12.4122 18.9316 10.8906C18.3592 10.519 17.757 10.1287 17.1237 9.71892C16.8519 9.54313 16.7742 9.18039 16.95 8.90866C17.1257 8.63686 17.4886 8.55912 17.7602 8.73499C22.8016 11.9966 25.8724 14.0249 27.717 15.3116C31.2239 17.7576 31.8269 20.2565 31.8722 22.4123C33.9819 18.5467 33.6938 13.7128 30.9858 10.0982C30.5683 9.54094 30.1162 9.03609 29.6422 8.5978C29.4047 8.3781 29.3901 8.00739 29.6098 7.76973C29.8295 7.53207 30.2002 7.51753 30.4379 7.73731C30.9638 8.22372 31.4638 8.78155 31.9238 9.39547C35.2981 13.8994 35.2643 20.1211 31.8585 24.5784C31.7115 28.4949 30.5962 31.7364 28.4614 34.4638C28.262 34.7186 27.8937 34.7636 27.6388 34.5641C27.384 34.3646 27.3391 33.9963 27.5386 33.7416C29.6977 30.983 30.7034 27.7838 30.7034 23.6733V22.7003C30.7034 20.6866 30.2604 18.5141 27.0468 16.2727C25.5938 15.2592 23.3694 13.7789 20.0047 11.5881C17.2676 13.3832 13.9233 15.5977 12.9554 16.2727C9.74184 18.5142 9.29886 20.6866 9.29886 22.7003V23.6733C9.29886 26.9492 9.95989 29.6836 11.3197 32.033C12.5989 34.2431 14.5554 36.2003 17.3009 38.0165C18.9171 39.0857 21.015 39.0997 22.6455 38.0524L22.7074 38.0126C24.0858 37.1007 25.1431 36.2738 26.0287 35.4143C26.261 35.1889 26.6319 35.1944 26.8573 35.4266C27.0827 35.6589 27.0771 36.0298 26.8449 36.2551C25.9058 37.1666 24.7945 38.0369 23.348 38.9939L23.2795 39.038C22.2804 39.6797 21.14 39.9999 20.0004 40V40ZM20.001 36.4208C19.0287 36.4208 18.1888 36.1722 17.358 35.6387C17.0857 35.4639 17.0067 35.1014 17.1816 34.829C17.3566 34.5567 17.719 34.4778 17.9913 34.6526C18.6334 35.065 19.2532 35.2489 20.001 35.2489C20.7487 35.2489 21.3686 35.065 22.0107 34.6527C22.2831 34.4779 22.6454 34.5569 22.8204 34.8291C22.9952 35.1014 22.9162 35.4639 22.644 35.6388C21.8131 36.1722 20.9733 36.4208 20.001 36.4208V36.4208ZM22.2402 33.4682H17.7608C16.8281 33.4682 15.9225 33.0732 15.2762 32.3844C15.0548 32.1484 15.0665 31.7776 15.3025 31.5562C15.5385 31.3348 15.9093 31.3465 16.1307 31.5825C16.5564 32.0361 17.1505 32.2963 17.7607 32.2963H22.2401C22.851 32.2963 23.4455 32.0361 23.8711 31.5825C24.0926 31.3466 24.4634 31.3349 24.6993 31.5562C24.9353 31.7776 24.9471 32.1485 24.7256 32.3845C24.0795 33.0732 23.1736 33.4682 22.2402 33.4682V33.4682ZM20.001 30.5413C18.2794 30.5413 17.4754 29.3003 17.442 29.2474C17.2692 28.9739 17.3509 28.6119 17.6244 28.439C17.8963 28.267 18.2559 28.3469 18.4299 28.6168C18.4571 28.6574 18.9494 29.3693 20.0011 29.3693C21.067 29.3693 21.5648 28.6288 21.5695 28.6213C21.7424 28.3477 22.1043 28.2661 22.3778 28.439C22.6514 28.6119 22.733 28.9738 22.5601 29.2474C22.5266 29.3004 21.7225 30.5413 20.001 30.5413V30.5413ZM25.4336 26.9448C23.0932 26.9448 21.1891 25.0407 21.1891 22.7003C21.1891 20.36 23.0933 18.4559 25.4336 18.4559C27.774 18.4559 29.6781 20.3599 29.6781 22.7003C29.6781 25.0408 27.7741 26.9448 25.4336 26.9448V26.9448ZM25.4336 19.6278C23.7394 19.6278 22.3611 21.0062 22.3611 22.7003C22.3611 24.3946 23.7394 25.7729 25.4336 25.7729C27.1278 25.7729 28.5062 24.3945 28.5062 22.7003C28.5062 21.0062 27.1279 19.6278 25.4336 19.6278V19.6278ZM14.5683 26.9448C12.2278 26.9448 10.3238 25.0407 10.3238 22.7003C10.3238 20.36 12.2278 18.4559 14.5683 18.4559C16.9087 18.4559 18.8128 20.3599 18.8128 22.7003C18.8128 25.0408 16.9087 26.9448 14.5683 26.9448V26.9448ZM14.5683 19.6278C12.874 19.6278 11.4957 21.0062 11.4957 22.7003C11.4957 24.3946 12.874 25.7729 14.5683 25.7729C16.2625 25.7729 17.6409 24.3945 17.6409 22.7003C17.6409 21.0062 16.2625 19.6278 14.5683 19.6278V19.6278ZM25.4336 24.601C25.11 24.601 24.8477 24.3387 24.8477 24.0151V23.7982C24.8477 23.4746 25.11 23.2122 25.4336 23.2122C25.7572 23.2122 26.0196 23.4746 26.0196 23.7982V24.0151C26.0196 24.3387 25.7573 24.601 25.4336 24.601ZM14.5683 24.601C14.2447 24.601 13.9823 24.3387 13.9823 24.0151V23.7982C13.9823 23.4746 14.2447 23.2122 14.5683 23.2122C14.8919 23.2122 15.1542 23.4746 15.1542 23.7982V24.0151C15.1542 24.3387 14.8919 24.601 14.5683 24.601ZM15.5196 22.7375C15.3171 22.7375 15.1202 22.6325 15.0117 22.4445C14.8498 22.1642 14.9458 21.8059 15.226 21.6441L15.4138 21.5356C15.6939 21.3738 16.0524 21.4697 16.2143 21.75C16.3761 22.0302 16.2801 22.3886 15.9999 22.5504L15.8121 22.6589C15.7198 22.7121 15.619 22.7375 15.5196 22.7375V22.7375ZM26.3849 22.7375C26.1824 22.7375 25.9854 22.6325 25.8769 22.4445C25.7151 22.1642 25.8111 21.8059 26.0914 21.6441L26.2792 21.5356C26.5594 21.3739 26.9178 21.4698 27.0796 21.7501C27.2414 22.0303 27.1454 22.3887 26.8651 22.5505L26.6773 22.6589C26.5851 22.7121 26.4844 22.7375 26.3849 22.7375ZM24.4824 22.7375C24.383 22.7375 24.2822 22.7122 24.1899 22.6589L24.0021 22.5505C23.7219 22.3887 23.6258 22.0303 23.7877 21.7501C23.9495 21.4698 24.3077 21.3737 24.5881 21.5356L24.7759 21.6441C25.0561 21.8059 25.1521 22.1642 24.9903 22.4445C24.8818 22.6325 24.6849 22.7375 24.4824 22.7375ZM13.617 22.7375C13.5176 22.7375 13.4168 22.7122 13.3246 22.6589L13.1368 22.5505C12.8565 22.3887 12.7605 22.0303 12.9223 21.7501C13.0841 21.4698 13.4424 21.3737 13.7227 21.5356L13.9105 21.6441C14.1908 21.8059 14.2868 22.1642 14.125 22.4445C14.0165 22.6325 13.8195 22.7375 13.617 22.7375Z" fill="#156778"/>
</svg>
