<svg width="40" height="40" viewBox="0 0 40 40" fill="none" xmlns="http://www.w3.org/2000/svg">
<path d="M27.6748 40C27.4696 40 27.2744 39.8917 27.1678 39.7076C27.0348 39.4779 27.0729 39.1874 27.2606 38.9996C30.4209 35.8393 31.8929 32.0867 31.8929 27.1898C31.8929 26.8661 32.1552 26.6039 32.4788 26.6039C32.8024 26.6039 33.0647 26.8661 33.0647 27.1898C33.0647 31.5128 31.9208 35.1174 29.5781 38.1424C32.0973 37.0722 33.9772 35.4231 35.0751 33.3002C36.4186 30.7021 36.6069 27.3993 35.6195 23.7489L31.9965 10.3544C31.9558 10.2039 31.9767 10.0434 32.0547 9.90834C32.1326 9.77326 32.2612 9.67498 32.4119 9.63498C32.7246 9.55201 33.0471 9.73803 33.13 10.0508C33.1335 10.0642 33.1365 10.0776 33.1392 10.0911L36.7507 23.4429C37.816 27.381 37.5965 30.9757 36.116 33.8384C34.5822 36.8042 31.7163 38.9278 27.828 39.9795C27.777 39.9934 27.7257 40 27.6748 40ZM12.3254 40C12.2746 40 12.2232 39.9934 12.1724 39.9796C8.28401 38.9278 5.41808 36.8042 3.88433 33.8385C2.40387 30.9757 2.18433 27.381 3.24957 23.443L6.85667 10.1075C6.85987 10.0876 6.86409 10.0676 6.8694 10.0479C8.46573 4.13187 13.8652 0 20.0001 0C22.6341 0 25.1894 0.754217 27.3898 2.18109C29.5326 3.5707 31.2372 5.52468 32.3191 7.8317C32.4565 8.12467 32.3304 8.47365 32.0374 8.611C31.7444 8.74873 31.3955 8.6224 31.2581 8.32936C30.2693 6.22077 28.7112 4.43468 26.7521 3.16445C24.7421 1.86086 22.4073 1.17187 20.0001 1.17187C14.4135 1.17187 9.4944 4.9203 8.01643 10.2955C8.01323 10.3152 8.00901 10.3349 8.00378 10.3544L4.38074 23.7489C3.39332 27.3993 3.5816 30.7021 4.92519 33.3002C6.02308 35.4232 7.90292 37.0722 10.4221 38.1424C8.07948 35.1173 6.9355 31.5128 6.9355 27.1898C6.9355 26.8661 7.19784 26.6039 7.52143 26.6039C7.84503 26.6039 8.10737 26.8661 8.10737 27.1898C8.10737 32.0867 9.57932 35.8393 12.7396 38.9996C12.9274 39.1873 12.9654 39.4778 12.8324 39.7076C12.7258 39.8917 12.5306 40 12.3254 40ZM24.1593 39.9999C24.0094 39.9999 23.8594 39.9427 23.745 39.8284C23.5162 39.5994 23.5162 39.2285 23.745 38.9997C25.5308 37.214 26.7773 35.2393 27.524 32.9757C26.0028 32.3556 24.1472 31.9379 22.1275 31.7631C21.8051 31.7353 21.5663 31.4513 21.5942 31.1289C21.6221 30.8066 21.906 30.5675 22.2285 30.5957C24.3128 30.776 26.2426 31.2055 27.8499 31.8438C28.2044 30.4122 28.3773 28.8682 28.3773 27.19V12.6412C28.3773 11.2311 28.0994 9.86436 27.5694 8.60334C26.9384 11.6153 24.8744 14.1674 21.9647 15.3807L11.6231 19.6932V24.2455C11.6231 24.5692 11.3607 24.8314 11.0371 24.8314C10.7135 24.8314 10.4512 24.5692 10.4512 24.2455V19.3161C10.451 19.3074 10.451 19.2985 10.4512 19.2897V12.6411C10.4512 9.54631 11.6548 6.63827 13.8403 4.45273C14.0692 4.22398 14.4402 4.22398 14.6689 4.45273C14.8977 4.68163 14.8977 5.05257 14.6689 5.2814C12.7048 7.24553 11.6231 9.85928 11.6231 12.6411V18.4234L14.4667 17.2376C16.6657 16.3172 18.5132 14.7964 19.8102 12.839C21.1026 10.8887 21.7856 8.60256 21.7856 6.22788C21.7856 5.90421 22.048 5.64194 22.3716 5.64194C22.6952 5.64194 22.9575 5.90421 22.9575 6.22788C22.9575 8.83365 22.207 11.3435 20.7872 13.4863C20.3954 14.0775 19.9583 14.6322 19.4799 15.1472L21.5137 14.2991C24.548 13.0337 26.5324 10.1051 26.5984 6.81311C26.2295 6.26913 25.8062 5.75632 25.3314 5.28147C25.1026 5.05257 25.1026 4.68163 25.3314 4.4528C25.5602 4.22405 25.9312 4.22405 26.16 4.4528C28.3455 6.63835 29.5491 9.54631 29.5491 12.6412V27.1898C29.5491 32.3462 27.9216 36.4803 24.5736 39.8283C24.4592 39.9427 24.3092 39.9999 24.1593 39.9999ZM15.8409 39.9999C15.691 39.9999 15.541 39.9427 15.4267 39.8284C12.0787 36.4804 10.4511 32.3463 10.4511 27.1899C10.4511 26.8662 10.7135 26.6039 11.0371 26.6039C11.3606 26.6039 11.623 26.8662 11.623 27.1899C11.623 28.8681 11.7959 30.412 12.1503 31.8436C14.3327 30.9763 17.0873 30.5017 19.9849 30.5H19.9852C20.3088 30.5 20.571 30.762 20.5712 31.0856C20.5713 31.4092 20.3091 31.6717 19.9855 31.6719C17.1833 31.6735 14.5371 32.1347 12.4761 32.9756C13.2227 35.2393 14.4694 37.214 16.2552 38.9997C16.484 39.2286 16.484 39.5995 16.2552 39.8284C16.1409 39.9427 15.9909 39.9999 15.8409 39.9999Z" fill="#156778"/>
</svg>
