<svg width="40" height="40" viewBox="0 0 40 40" fill="none" xmlns="http://www.w3.org/2000/svg">
<g clip-path="url(#clip0_3602_3857)">
<path d="M33.5617 37.8818C33.1116 37.8818 32.6615 37.7105 32.3188 37.3679L20.5973 25.6464C20.376 25.425 20.2541 25.1307 20.2541 24.8178C20.2541 24.5048 20.376 24.2105 20.5973 23.9892L16.1803 19.5721C16.0827 19.4745 15.9895 19.3736 15.9006 19.2696C10.0548 18.6371 4.93125 14.949 2.46375 9.59504C1.63102 9.16652 0.860157 8.61191 0.17586 7.94129C-0.0553118 7.71481 -0.0590618 7.34387 0.167501 7.1127C0.394063 6.88152 0.765079 6.87785 0.996016 7.10434C1.77766 7.87027 2.68867 8.4634 3.68086 8.86434L8.5593 3.9877C9.76539 2.78207 11.3688 2.11816 13.0741 2.11816H20.0304C20.3541 2.11816 20.6163 2.38051 20.6163 2.7041C20.6163 3.0277 20.3541 3.29004 20.0304 3.29004H13.0741C11.6817 3.29004 10.3726 3.83215 9.38781 4.81652L4.94266 9.25996C5.5532 9.39902 6.18445 9.47051 6.82703 9.47051H6.83188C9.06242 9.46926 11.1527 8.82418 12.7174 7.6541C12.9254 7.49855 13.2112 7.49848 13.4191 7.6541C15.793 9.42918 19.6552 9.42918 22.0291 7.6541C22.237 7.49855 22.5228 7.49855 22.7308 7.6541C24.2973 8.82543 26.3891 9.47051 28.6211 9.47051C29.2637 9.47051 29.895 9.39902 30.5056 9.25996L26.0604 4.81652C25.0757 3.83215 23.7666 3.29004 22.3741 3.29004C22.0505 3.29004 21.7882 3.0277 21.7882 2.7041C21.7882 2.38051 22.0505 2.11816 22.3741 2.11816C24.0795 2.11816 25.6829 2.78215 26.8889 3.9877L31.7673 8.86434C32.7596 8.46348 33.6706 7.87027 34.4521 7.10441C34.6832 6.87793 35.0542 6.88152 35.2807 7.11277C35.5072 7.34387 35.5035 7.71488 35.2724 7.94137C34.5881 8.61199 33.8173 9.16652 32.9845 9.59504C31.577 12.6508 29.3127 15.1878 26.4269 16.9396C26.1504 17.1075 25.79 17.0193 25.622 16.7427C25.4541 16.4661 25.5422 16.1057 25.8188 15.9378C28.1328 14.5332 30.0171 12.5863 31.3319 10.2556C30.4638 10.5104 29.5527 10.6424 28.6211 10.6424C26.2977 10.6424 24.0984 10.005 22.3771 8.8402C21.082 9.68832 19.4476 10.1514 17.7241 10.1514C16.0005 10.1514 14.3662 9.68832 13.071 8.8402C11.3515 10.0037 9.15422 10.6411 6.83242 10.6424C6.83078 10.6424 6.8286 10.6424 6.82695 10.6424C5.89586 10.6424 4.98555 10.5106 4.11774 10.2561C6.42289 14.3304 10.4575 17.1782 15.0698 17.9707C14.2266 16.1617 14.3409 14.0629 15.2604 13.1433C16.4746 11.9291 19.745 12.1189 21.6893 14.0632L26.1063 18.4802C26.5634 18.0234 27.3069 18.0234 27.7636 18.4802L29.7384 20.455C29.9673 20.6839 29.9673 21.0549 29.7384 21.2836C29.5095 21.5124 29.1386 21.5125 28.9098 21.2836L26.935 19.3089L21.426 24.8179L26.5184 29.9102L32.0274 24.4012L30.4723 22.8461C30.2435 22.6173 30.2435 22.2463 30.4723 22.0175C30.7013 21.7886 31.0723 21.7887 31.301 22.0175L39.4851 30.2016C39.817 30.5336 39.9999 30.975 39.9999 31.4446C39.9999 31.9141 39.817 32.3555 39.485 32.6875L34.8048 37.3679C34.462 37.7105 34.012 37.8818 33.5617 37.8818ZM29.0042 32.3961L33.1474 36.5393C33.3759 36.7678 33.7477 36.7675 33.9761 36.5393L38.6563 31.8589C38.767 31.7482 38.828 31.6011 38.828 31.4446C38.828 31.2882 38.767 31.1411 38.6564 31.0303L34.5132 26.8871L29.0042 32.3961ZM27.347 30.7387L28.1756 31.5674L33.6846 26.0583L32.856 25.2297L27.347 30.7387ZM17.5407 13.5444C16.8995 13.5444 16.3644 13.6965 16.0891 13.9719C15.3635 14.6975 15.4932 17.2279 17.0089 18.7435L21.4259 23.1605L25.2777 19.3088L20.8606 14.8918C19.9202 13.9513 18.5889 13.5444 17.5407 13.5444Z" fill="#156778"/>
</g>
<defs>
<clipPath id="clip0_3602_3857">
<rect width="40" height="40" fill="white"/>
</clipPath>
</defs>
</svg>
