<svg width="40" height="40" viewBox="0 0 40 40" fill="none" xmlns="http://www.w3.org/2000/svg">
<g clip-path="url(#clip0_3602_3862)">
<path d="M32.0358 40.0005C31.7437 40.0005 31.4908 39.7822 31.4549 39.4849L31.1761 37.1813C31.1372 36.86 31.3661 36.568 31.6873 36.5292C32.0077 36.4905 32.3006 36.7192 32.3394 37.0404L32.6182 39.344C32.6572 39.6653 32.4282 39.9573 32.107 39.9961C32.0832 39.999 32.0593 40.0005 32.0358 40.0005ZM7.96408 40.0005C7.94056 40.0005 7.91689 39.999 7.89291 39.9961C7.57166 39.9573 7.34275 39.6653 7.38166 39.344L8.26837 32.0182L6.4287 23.418C6.36104 23.1015 6.56268 22.7901 6.87909 22.7225C7.19541 22.6548 7.50697 22.8563 7.57463 23.1729L9.43485 31.8689C9.44844 31.9324 9.45133 31.9975 9.44352 32.062L8.54501 39.485C8.50907 39.7822 8.25626 40.0005 7.96408 40.0005ZM19.9996 37.6969C19.9163 37.6969 19.8317 37.679 19.7512 37.6414L18.5127 37.0606C18.2196 36.9232 18.0935 36.5743 18.2309 36.2813C18.3683 35.9882 18.7171 35.862 19.0102 35.9995L20.2487 36.5803C20.5417 36.7177 20.6678 37.0666 20.5305 37.3596C20.4308 37.5722 20.2198 37.6969 19.9996 37.6969V37.6969ZM31.4887 35.4808C31.1966 35.4808 30.9437 35.2626 30.9078 34.9652L30.5564 32.0618C30.5486 31.9974 30.5515 31.9322 30.5651 31.8688L34.7319 12.3894C34.7702 12.2102 34.8902 12.0592 35.0561 11.9814L39.1651 10.0548C39.458 9.9175 39.8069 10.0436 39.9444 10.3366C40.0817 10.6296 39.9556 10.9785 39.6626 11.1159L35.8171 12.919L31.7316 32.0182L32.0712 34.8244C32.1101 35.1457 31.8812 35.4377 31.56 35.4765C31.5361 35.4793 31.5122 35.4808 31.4887 35.4808V35.4808ZM20 35.0995C19.6763 35.0995 19.4141 34.8372 19.4141 34.5136V34.202L18.5127 33.7794C18.2197 33.642 18.0936 33.2931 18.2309 33.0001C18.3684 32.707 18.7172 32.5809 19.0102 32.7184L19.4561 32.9274C19.5426 32.7119 19.7536 32.5597 20.0001 32.5597C20.3237 32.5597 20.586 32.8219 20.586 33.1456V34.5137C20.5859 34.8372 20.3236 35.0995 20 35.0995ZM19.9996 31.1345C19.9163 31.1345 19.8317 31.1166 19.7512 31.0789L18.5127 30.4981C18.3003 30.3986 18.1756 30.1879 18.1753 29.9681C18.1752 29.8845 18.1931 29.7995 18.2309 29.7189C18.3683 29.4258 18.7171 29.2997 19.0102 29.4371L20.2487 30.0179C20.461 30.1174 20.5857 30.3281 20.586 30.548C20.5861 30.6316 20.5682 30.7165 20.5305 30.7971C20.4308 31.0098 20.2198 31.1345 19.9996 31.1345V31.1345ZM19.9996 27.8532C19.9163 27.8532 19.8317 27.8353 19.7512 27.7977L18.5127 27.2169C18.2196 27.0795 18.0935 26.7306 18.2309 26.4376C18.3683 26.1445 18.7171 26.0185 19.0102 26.1558L20.2487 26.7366C20.5417 26.874 20.6678 27.2229 20.5305 27.5159C20.4308 27.7285 20.2198 27.8532 19.9996 27.8532V27.8532ZM19.9996 24.572C19.9163 24.572 19.8317 24.5541 19.7512 24.5165L18.5127 23.9357C18.2196 23.7983 18.0935 23.4494 18.2309 23.1564C18.3683 22.8633 18.7171 22.7373 19.0102 22.8746L20.2487 23.4554C20.5417 23.5928 20.6678 23.9417 20.5305 24.2347C20.4308 24.4473 20.2198 24.572 19.9996 24.572V24.572ZM24.124 21.5228C23.9038 21.5228 23.6928 21.398 23.5931 21.1855C23.4557 20.8925 23.5818 20.5436 23.8749 20.4062C27.9974 18.4733 30.2314 16.3178 30.2314 10.4732C30.2314 10.2459 30.3629 10.0391 30.5686 9.94265L32.5814 8.99891C32.8742 8.86157 33.2232 8.98758 33.3607 9.28071C33.498 9.57367 33.3719 9.92258 33.0789 10.06L31.4004 10.8469C31.3551 13.6897 30.7867 15.8071 29.6216 17.4876C28.543 19.0434 26.9242 20.2708 24.3724 21.4672C24.2919 21.5049 24.2073 21.5228 24.124 21.5228ZM15.876 21.5228C15.7927 21.5228 15.7081 21.5049 15.6276 21.4673C13.0758 20.2709 11.4569 19.0435 10.3784 17.4877C9.74812 16.5785 9.29242 15.5416 8.99977 14.3311L7.41861 15.0725C7.12565 15.2099 6.77682 15.0837 6.63932 14.7907C6.50198 14.4977 6.62807 14.1488 6.92112 14.0114L8.77259 13.1433C8.7479 12.9726 8.72571 12.7988 8.70626 12.6217H6.64713C6.32346 12.6217 6.0612 12.3594 6.0612 12.0358C6.0612 11.7121 6.32346 11.4498 6.64713 11.4498H8.61759C8.60884 11.2527 8.6029 11.0516 8.5997 10.847L6.92119 10.0601C6.62815 9.92266 6.50206 9.57375 6.6394 9.28078C6.7769 8.98766 7.12572 8.86165 7.41869 8.99899L9.43149 9.94273C9.63727 10.0392 9.76867 10.246 9.76867 10.4733C9.76867 16.3179 12.0027 18.4733 16.1252 20.4063C16.4182 20.5437 16.5443 20.8926 16.407 21.1855C16.3071 21.398 16.0961 21.5228 15.876 21.5228V21.5228ZM6.49651 21.5228C6.22604 21.5228 5.983 21.3344 5.92417 21.0593L4.18286 12.919L0.337342 11.116C0.0442976 10.9786 -0.0817951 10.6297 0.0555475 10.3367C0.192968 10.0436 0.541794 9.91758 0.834838 10.0549L4.94379 11.9815C5.10972 12.0593 5.22972 12.2103 5.268 12.3895L7.0701 20.8142C7.13776 21.1306 6.93612 21.442 6.61963 21.5097C6.57838 21.5185 6.53713 21.5228 6.49651 21.5228ZM19.9996 21.2908C19.9163 21.2908 19.8317 21.2729 19.7512 21.2352L18.5127 20.6545C18.2196 20.517 18.0935 20.1681 18.2309 19.8752C18.3683 19.582 18.7171 19.4559 19.0102 19.5934L20.2487 20.1741C20.5417 20.3116 20.6678 20.6605 20.5305 20.9534C20.4308 21.1661 20.2198 21.2908 19.9996 21.2908V21.2908ZM20 19.0194C19.6763 19.0194 19.4141 18.7571 19.4141 18.4335V17.6396L18.5127 17.2171C18.2197 17.0796 18.0936 16.7307 18.2309 16.4378C18.3684 16.1446 18.7172 16.0186 19.0102 16.156L19.4141 16.3453V14.2022L18.5128 13.7796C18.2198 13.6422 18.0937 13.2933 18.231 13.0003C18.3684 12.7072 18.7173 12.5811 19.0103 12.7185L19.4142 12.9079V12.0358C19.4142 11.7121 19.6765 11.4498 20.0001 11.4498C20.3238 11.4498 20.5861 11.7121 20.5861 12.0358V18.4335C20.5859 18.7571 20.3236 19.0194 20 19.0194V19.0194ZM17.1871 18.8689C17.1038 18.8689 17.0192 18.851 16.9387 18.8134L15.7002 18.2326C15.4071 18.0952 15.281 17.7463 15.4184 17.4533C15.5558 17.1602 15.9046 17.0341 16.1977 17.1715L17.4363 17.7523C17.7292 17.8897 17.8553 18.2386 17.718 18.5316C17.6184 18.7442 17.4073 18.8689 17.1871 18.8689V18.8689ZM14.3746 16.4471C14.2914 16.4471 14.2068 16.4292 14.1262 16.3915L12.8877 15.8107C12.5947 15.6733 12.4686 15.3244 12.6059 15.0314C12.7433 14.7383 13.0922 14.6122 13.3852 14.7497L14.6238 15.3304C14.9168 15.4679 15.0428 15.8168 14.9055 16.1097C14.8059 16.3224 14.5948 16.4471 14.3746 16.4471V16.4471ZM17.1871 15.4314C17.1038 15.4314 17.0192 15.4136 16.9387 15.3759L15.7002 14.7951C15.4071 14.6577 15.281 14.3088 15.4184 14.0158C15.5558 13.7227 15.9046 13.5967 16.1977 13.734L17.4363 14.3148C17.7292 14.4522 17.8553 14.8011 17.718 15.0941C17.6184 15.3068 17.4073 15.4314 17.1871 15.4314V15.4314ZM14.3746 13.0096C14.2914 13.0096 14.2068 12.9917 14.1262 12.954L12.8877 12.3733C12.5947 12.2358 12.4686 11.8869 12.6059 11.594C12.7433 11.3008 13.0922 11.1747 13.3852 11.3122L14.6238 11.893C14.9168 12.0304 15.0428 12.3793 14.9055 12.6722C14.8059 12.8849 14.5948 13.0096 14.3746 13.0096V13.0096ZM17.1871 11.994C17.1038 11.994 17.0192 11.9761 16.9387 11.9384L15.7002 11.3576C15.4071 11.2202 15.281 10.8713 15.4184 10.5784C15.5558 10.2852 15.9046 10.1591 16.1977 10.2966L17.4363 10.8773C17.7292 11.0148 17.8553 11.3637 17.718 11.6566C17.6184 11.8693 17.4073 11.994 17.1871 11.994V11.994ZM22.8129 8.95649C22.5926 8.95649 22.3816 8.83172 22.2819 8.61915C22.1446 8.32618 22.2707 7.97728 22.5637 7.83986L25.0553 6.67166C24.7159 6.22557 24.5252 5.67487 24.5252 5.09988V0.586626C24.5252 0.262956 24.7875 0.000692316 25.1111 0.000692316C25.4348 0.000692316 25.6971 0.262956 25.6971 0.586626V5.09995C25.6971 5.3562 25.7661 5.60362 25.8919 5.81862C26.9339 3.69129 28.8617 2.11474 31.1914 1.52685C31.5053 1.44764 31.8236 1.63787 31.9029 1.95169C31.982 2.26552 31.7918 2.58403 31.478 2.66317C29.2387 3.22817 27.4336 4.86027 26.6494 7.02908C26.5966 7.17517 26.4878 7.29439 26.3471 7.36033L23.0611 8.90102C22.9807 8.93868 22.8961 8.95649 22.8129 8.95649V8.95649ZM17.1871 8.95649C17.1038 8.95649 17.0192 8.9386 16.9388 8.90094L13.6527 7.36025C13.512 7.29424 13.4033 7.1751 13.3504 7.029C12.0508 3.43489 8.06962 1.56842 4.47551 2.86778C4.32926 2.92059 4.16809 2.91325 4.02755 2.84731L0.337342 1.11717C0.0442976 0.979748 -0.0817951 0.630844 0.0555475 0.337877C0.192968 0.0447545 0.541794 -0.0813384 0.834838 0.0560826L4.31004 1.68552C8.16923 0.41983 12.3508 2.22693 14.1082 5.81831C14.2339 5.60339 14.3029 5.35605 14.3029 5.09988V0.586626C14.3029 0.262956 14.5652 0.000692316 14.8889 0.000692316C15.2125 0.000692316 15.4748 0.262956 15.4748 0.586626V5.09995C15.4748 5.67495 15.2841 6.22565 14.9446 6.67174L17.4363 7.83993C17.7293 7.97736 17.8554 8.32626 17.7181 8.61923C17.6184 8.8318 17.4073 8.95649 17.1871 8.95649V8.95649ZM35.7237 2.90278C35.6564 2.90278 35.5889 2.89122 35.5244 2.86786C34.9064 2.64442 34.2641 2.50966 33.6153 2.46739C33.2923 2.4463 33.0475 2.16747 33.0686 1.84459C33.0897 1.52154 33.3707 1.2767 33.6914 1.29795C34.3691 1.34209 35.0402 1.47232 35.6899 1.68552L39.1651 0.0560826C39.4581 -0.0813384 39.8069 0.0448326 39.9444 0.337877C40.0818 0.630844 39.9557 0.979748 39.6626 1.11717L35.9724 2.84739C35.8938 2.88427 35.8088 2.90278 35.7237 2.90278Z" fill="#156778"/>
</g>
<defs>
<clipPath id="clip0_3602_3862">
<rect width="40" height="40" fill="white"/>
</clipPath>
</defs>
</svg>
