<svg width="40" height="36" viewBox="0 0 40 36" fill="none" xmlns="http://www.w3.org/2000/svg">
<path d="M6.92105 35.6786H0.586172C0.262371 35.6786 0 35.4162 0 35.0924C0 34.7686 0.262371 34.5062 0.586172 34.5062H6.92105C10.7681 34.5062 13.6834 34.0515 15.8335 33.1161C17.6449 32.3281 18.962 31.2015 19.9182 29.6089H12.9463C10.7038 29.6089 8.95499 27.7042 8.7242 25.1023H0.586172C0.262371 25.1023 0 24.8399 0 24.5161C0 24.1923 0.262371 23.93 0.586172 23.93H9.2845C12.1282 23.93 14.6188 22.9283 16.487 21.0332L20.8114 16.6367L18.2604 14.0684C18.1239 13.931 18.0641 13.7349 18.1007 13.5446C18.1373 13.3543 18.2656 13.1945 18.4434 13.1174C18.9909 12.8804 19.5095 12.6579 20.0035 12.446C22.2659 11.4755 24.053 10.7089 25.7006 9.77859C25.9825 9.6197 26.3402 9.71896 26.4993 10.0009C26.6584 10.2828 26.559 10.6403 26.277 10.7995C24.5739 11.7612 22.761 12.5388 20.4658 13.5235C20.2165 13.6304 19.961 13.74 19.6987 13.8528L26.1184 20.3161C28.8643 14.0051 30.3651 11.0469 35.3584 6.05359L38.5344 2.87763C38.7353 2.67669 38.8418 2.39861 38.8264 2.11459C38.8109 1.82681 38.6769 1.56749 38.4492 1.38429C38.0591 1.07057 37.4603 1.11809 37.0859 1.49254L33.91 4.6685C31.7443 6.83413 30.0291 8.32317 28.3484 9.4966C28.0828 9.68207 27.7174 9.61704 27.5322 9.35162C27.3469 9.08621 27.4118 8.72075 27.6772 8.53544C29.2994 7.40288 30.9659 5.95464 33.0809 3.83957L36.2567 0.66338C37.0616 -0.141317 38.32 -0.224085 39.1837 0.470725C39.6672 0.859552 39.9636 1.43564 39.9968 2.0512C40.0301 2.66715 39.7992 3.27052 39.3633 3.70647L36.1871 6.88251C31.1412 11.9285 29.7593 14.8563 26.8497 21.5755C26.7724 21.7539 26.6116 21.8825 26.4205 21.9186C26.2296 21.9544 26.0328 21.8937 25.8958 21.7557L23.2897 19.1319C22.5997 19.8311 20.9283 21.5214 18.9547 23.4951C18.805 23.6448 18.66 23.7897 18.5197 23.93H23.1504C23.8875 23.93 24.4873 24.529 24.4876 25.2653C24.4879 26.3521 24.1994 27.3745 23.6753 28.1445C23.0937 28.9986 22.267 29.4937 21.269 29.5911C19.0689 33.8534 14.7486 35.6786 6.92105 35.6786V35.6786ZM9.90279 25.0871C10.0962 26.7909 11.1568 28.4365 12.9462 28.4365H20.8852C20.8931 28.4363 20.9009 28.4363 20.9088 28.4365C21.6737 28.4332 22.2783 28.113 22.7063 27.4845C23.0936 26.9157 23.3156 26.1069 23.3153 25.2656C23.3153 25.1755 23.2413 25.1021 23.1504 25.1021H17.3466C15.875 26.572 15.1872 27.2559 15.1783 27.2647C14.9488 27.493 14.5776 27.4919 14.3494 27.2623C14.1211 27.0327 14.1222 26.6615 14.3518 26.4334C14.3628 26.4224 15.4158 25.3754 17.7112 23.0805L16.8957 22.2648C15.0176 23.9684 12.5727 24.9551 9.90279 25.0871V25.0871ZM17.73 21.4412L18.5402 22.2514C20.3369 20.4522 21.8283 18.9437 22.4636 18.3L21.6376 17.4683L17.73 21.4412Z" fill="#156778"/>
</svg>
