<svg width="40" height="40" viewBox="0 0 40 40" fill="none" xmlns="http://www.w3.org/2000/svg">
<g clip-path="url(#clip0_3602_3847)">
<path d="M29.7315 36.0938H10.2685C9.16047 36.0938 8.08266 35.6347 7.31117 34.8342C5.11281 32.5533 0 26.3893 0 18.4347C0 17.5826 0.427266 16.7977 1.14281 16.3352L3.125 15.0541V11.8574C3.125 10.8881 3.91359 10.0996 4.88281 10.0996H13.8241C15.71 7.95985 17.8563 7.00297 20.7531 7.00297C21.0768 7.00297 21.3391 7.26531 21.3391 7.58891C21.3391 7.9125 21.0768 8.17485 20.7531 8.17485C18.6057 8.17485 16.9304 8.77617 15.4659 10.0996H31.8831C31.2991 8.13414 29.5448 6.12555 27.5736 5.19922C26.3087 6.59274 24.8937 7.47289 23.26 7.88485C22.9463 7.96383 22.6277 7.77375 22.5486 7.46C22.4695 7.14625 22.6597 6.82774 22.9734 6.7486C24.5071 6.36188 25.7757 5.52477 26.9659 4.11438C27.128 3.92227 27.3946 3.85492 27.6284 3.94703C30.2065 4.96242 32.4807 7.54977 33.0962 10.0996H35.1172C36.0864 10.0996 36.875 10.8881 36.875 11.8574V15.0541L38.8572 16.3352C39.5723 16.7976 39.9996 17.5788 40 18.4252C40.0013 20.8205 39.5385 23.2509 38.6247 25.6491C38.5095 25.9514 38.1712 26.1033 37.8684 25.988C37.5661 25.8727 37.4143 25.5342 37.5295 25.2318C38.3165 23.1666 38.7491 21.0802 38.8182 19.0206H21.9803C21.6566 19.0206 21.3944 18.7583 21.3944 18.4347C21.3944 18.1111 21.6566 17.8488 21.9803 17.8488H38.6939C38.5897 17.637 38.4281 17.4532 38.2211 17.3195L36.1162 15.959H3.88383L1.77898 17.3195C1.57273 17.4527 1.41172 17.6364 1.30742 17.8488H19.6366C19.9602 17.8488 20.2225 18.1111 20.2225 18.4347C20.2225 18.7583 19.9602 19.0206 19.6366 19.0206H1.18172C1.42508 26.2666 6.11016 31.8994 8.15492 34.021C8.70672 34.5935 9.47703 34.9219 10.2685 34.9219H29.7315C30.5228 34.9219 31.292 34.5948 31.8419 34.0244C32.9587 32.8659 35.0702 30.4409 36.6625 27.2154C36.8058 26.9252 37.1573 26.8062 37.4473 26.9494C37.7375 27.0926 37.8566 27.444 37.7134 27.7341C36.1341 30.9332 34.1075 33.3628 32.6855 34.8377C31.9159 35.636 30.8392 36.0938 29.7315 36.0938ZM4.29688 14.7871H35.7031V11.8574C35.7031 11.5344 35.4403 11.2715 35.1172 11.2715H4.88281C4.55969 11.2715 4.29688 11.5344 4.29688 11.8574V12.4434H33.9453C34.269 12.4434 34.5312 12.7057 34.5312 13.0293C34.5312 13.3529 34.269 13.6152 33.9453 13.6152H4.29688V14.7871ZM20 32.5781C17.7631 32.5781 15.9434 30.7584 15.9434 28.5216C15.9434 26.7229 16.9476 24.5882 19.1038 21.8037C19.32 21.5245 19.6466 21.3644 20 21.3644C20.3534 21.3644 20.68 21.5245 20.8962 21.8036C23.0524 24.5882 24.0566 26.7228 24.0566 28.5215C24.0566 30.7584 22.2369 32.5781 20 32.5781ZM20 22.5604C18.059 25.0746 17.1152 27.0249 17.1152 28.5216C17.1152 30.1122 18.4094 31.4063 20 31.4063C21.5906 31.4063 22.8848 30.1122 22.8848 28.5216C22.8848 27.0249 21.941 25.0747 20 22.5604ZM19.9696 22.5212C19.9696 22.5212 19.9697 22.5212 19.9696 22.5212C19.9696 22.5211 19.9696 22.5211 19.9696 22.5212Z" fill="#156778"/>
</g>
<defs>
<clipPath id="clip0_3602_3847">
<rect width="40" height="40" fill="white"/>
</clipPath>
</defs>
</svg>
