<svg width="40" height="40" viewBox="0 0 40 40" fill="none" xmlns="http://www.w3.org/2000/svg">
<g clip-path="url(#clip0_3602_3852)">
<path d="M27.4107 39.3996C24.2976 39.3996 21.2193 38.8302 18.2612 37.7072C15.4365 36.6349 12.498 36.0911 9.52755 36.0911C6.55709 36.0911 3.61859 36.6348 0.793923 37.7072C0.613685 37.7757 0.411649 37.7511 0.25313 37.6417C0.0946895 37.5323 0 37.352 0 37.1594V22.0113C0 21.7679 0.150472 21.5499 0.377977 21.4635C5.73973 19.428 11.4602 19.2214 16.9209 20.8662C17.2308 20.9595 17.4063 21.2864 17.313 21.5962C17.2197 21.9061 16.8928 22.0814 16.5829 21.9882C11.5 20.4573 6.18005 20.6075 1.17182 22.419V36.3245C3.88508 35.3917 6.69194 34.9192 9.52747 34.9192C12.6406 34.9192 15.7189 35.4886 18.677 36.6116C21.5018 37.684 24.4403 38.2277 27.4107 38.2277C30.249 38.2277 33.0577 37.7314 35.7663 36.7517V22.8461C33.1065 23.7606 30.3555 24.2328 27.5762 24.2509C24.5212 24.2715 21.4938 23.7416 18.5799 22.6777C18.2759 22.5668 18.1195 22.2304 18.2305 21.9264C18.3414 21.6224 18.6774 21.4659 18.9818 21.5768C21.7641 22.5925 24.6526 23.0977 27.5686 23.079C30.4853 23.0599 33.3706 22.5164 36.1443 21.4634C36.3246 21.395 36.5266 21.4196 36.6851 21.5289C36.8435 21.6383 36.9382 21.8186 36.9382 22.0112V37.1593C36.9382 37.4027 36.7877 37.6208 36.5602 37.7072C33.6022 38.8302 30.5239 39.3996 27.4107 39.3996ZM24.9897 35.2989C24.6798 35.2989 24.3636 35.2885 24.0418 35.2674C22.0054 35.1341 20.06 34.4838 18.2611 33.8009C16.4712 33.1214 14.6204 32.4188 12.7795 32.1697L12.2785 32.1023C10.327 31.8404 8.64151 31.6142 7.41321 31.1348C5.92075 30.5524 5.19527 29.6111 5.19527 28.2571C5.19527 27.248 5.60629 26.3297 6.38381 25.6013C7.73103 24.3394 10.1044 23.7202 12.8964 23.9033C14.9326 24.0366 16.8781 24.6869 18.677 25.3698C20.4668 26.0493 22.3176 26.7519 24.1587 27.001C24.4794 27.0444 24.7041 27.3395 24.6608 27.6602C24.6174 27.9809 24.3232 28.2059 24.0016 28.1623C22.0273 27.8952 20.1128 27.1683 18.2611 26.4654C16.5474 25.8148 14.702 25.1958 12.8199 25.0726C10.3503 24.911 8.29651 25.4154 7.185 26.4565C6.64233 26.9648 6.36717 27.5706 6.36717 28.257C6.36717 30.0433 8.4476 30.4057 12.4344 30.9407L12.9367 31.0083C14.9108 31.2754 16.8254 32.0023 18.6771 32.7052C20.3907 33.3557 22.236 33.9747 24.1184 34.098C26.588 34.2597 28.6416 33.7551 29.7532 32.714C30.2959 32.2057 30.571 31.5999 30.571 30.9134C30.571 29.5819 29.4859 28.9671 26.2708 28.4771C25.9509 28.4283 25.7311 28.1294 25.7799 27.8095C25.8286 27.4895 26.1284 27.2701 26.4474 27.3185C29.1269 27.7269 31.7429 28.3409 31.7429 30.9134C31.7429 31.9226 31.3319 32.841 30.5543 33.5693C29.3625 34.6858 27.3671 35.2989 24.9897 35.2989V35.2989ZM18.7763 19.5656C18.7748 19.5656 18.7732 19.5656 18.7716 19.5656C18.4493 19.563 18.1898 19.3007 18.1903 18.9788C18.1903 18.9775 18.1903 18.9763 18.1903 18.975L18.2384 12.8814C18.2646 12.3523 18.1029 12.0648 17.5364 11.7483L15.3289 10.5146C12.789 9.09507 11.8356 5.88766 13.2034 3.36456C13.8813 2.11422 15.0064 1.20764 16.3715 0.811849C17.7371 0.41606 19.1721 0.579969 20.4129 1.27342C21.6472 1.96328 22.4139 3.2701 22.4139 4.68412V5.07678L30.4582 9.57258C30.7406 9.73048 30.8416 10.0874 30.6838 10.3699C30.5259 10.6524 30.1689 10.7535 29.8864 10.5956L22.4139 6.41931V10.4468C27.9518 13.5419 35.8244 17.9417 36.213 18.1589C37.0589 18.6317 38.1322 18.328 38.605 17.482C39.0779 16.6359 38.7743 15.5628 37.9282 15.0899L31.8563 11.6965C31.5739 11.5386 31.4729 11.1816 31.6307 10.8991C31.7885 10.6166 32.1454 10.5156 32.428 10.6735L38.4998 14.0668C39.9101 14.855 40.4161 16.6434 39.628 18.0536C38.8397 19.4637 37.0513 19.9698 35.6412 19.1817C35.2488 18.9624 27.2204 14.4754 21.6752 11.3764H20.9364C20.1343 11.3764 19.4101 12.0665 19.4101 12.9054L19.3621 18.9842C19.3596 19.3063 19.0978 19.5656 18.7763 19.5656V19.5656ZM17.8468 1.77304C17.4631 1.77304 17.077 1.82742 16.6979 1.93742C15.6362 2.24524 14.761 2.95041 14.2337 3.92317C13.1699 5.8854 13.9177 8.38334 15.9007 9.49157L18.1082 10.7253C18.3872 10.8813 18.6209 11.0547 18.8098 11.2468C19.1004 10.8748 19.486 10.5803 19.9293 10.4006C17.9931 9.31844 16.6282 8.55569 16.4721 8.46842C15.789 8.08669 15.2954 7.46168 15.0824 6.70869C14.8693 5.95571 14.9622 5.16475 15.344 4.48169C16.1322 3.07151 17.9208 2.5654 19.3308 3.35362L19.894 3.66839C20.1764 3.82629 20.2775 4.18325 20.1197 4.46576C19.9618 4.74826 19.6048 4.84936 19.3223 4.69139L18.7592 4.37669C17.9131 3.90379 16.84 4.20739 16.367 5.0535C16.1379 5.46335 16.0821 5.9379 16.21 6.3897C16.3379 6.84151 16.634 7.21652 17.044 7.44559C17.2194 7.54363 18.9195 8.49381 21.2421 9.79189V4.68412C21.2421 3.69425 20.7054 2.77931 19.8412 2.29641C19.2207 1.94961 18.5376 1.77304 17.8468 1.77304V1.77304Z" fill="#156778"/>
</g>
<defs>
<clipPath id="clip0_3602_3852">
<rect width="40" height="40" fill="white"/>
</clipPath>
</defs>
</svg>
