<svg width="27" height="26" viewBox="0 0 27 26" fill="none" xmlns="http://www.w3.org/2000/svg">
<g clip-path="url(#clip0_3623_975)">
<path fill-rule="evenodd" clip-rule="evenodd" d="M7 4C4.23858 4 2 6.23858 2 9V19C2 21.7614 4.23858 24 7 24H17C19.7614 24 22 21.7614 22 19V9C22 6.23858 19.7614 4 17 4H7ZM4.22223 9.22219C4.22223 7.56534 5.56537 6.22219 7.22223 6.22219H16.7778C18.4346 6.22219 19.7778 7.56534 19.7778 9.22219V14.3333C19.7778 15.9902 18.4346 17.3333 16.7778 17.3333H15.3333V17.3334C15.3333 19.1743 13.841 20.6667 12 20.6667C10.1591 20.6667 8.66667 19.1743 8.66667 17.3334V17.3333H7.22223C5.56537 17.3333 4.22223 15.9902 4.22223 14.3333V9.22219Z" fill="#ADB3BC"/>
</g>
<circle cx="21" cy="6" r="6" fill="white"/>
<circle cx="21" cy="6" r="4" fill="#F98600"/>
<defs>
<clipPath id="clip0_3623_975">
<rect width="24" height="24" fill="white" transform="translate(0 2)"/>
</clipPath>
</defs>
</svg>
